<?xml version="1.0" encoding="utf-8"?>
<!-- Generator: Adobe Illustrator 24.1.0, SVG Export Plug-In . SVG Version: 6.00 Build 0)  -->
<svg version="1.1" id="Layer_1" xmlns="http://www.w3.org/2000/svg" xmlns:xlink="http://www.w3.org/1999/xlink" x="0px" y="0px"
	 viewBox="0 0 51 52" style="enable-background:new 0 0 51 52;" xml:space="preserve">
<style type="text/css">
	.st0{fill:#FFFFFF;}
</style>
<path class="st0" d="M35.9,37.6h-3.8c-0.3,0-0.6-0.3-0.6-0.6v-2.4c0-0.6-0.4-1.1-0.6-1.4c-1-1-1.4-2.4-1.2-3.8
	c0.3-1.8,1.8-3.2,3.5-3.5c1.3-0.2,2.6,0.1,3.6,1c1,0.8,1.6,2.1,1.6,3.4c0,1.2-0.5,2.3-1.3,3.1c-0.3,0.3-0.6,0.7-0.6,1.2V37
	C36.5,37.3,36.2,37.6,35.9,37.6L35.9,37.6z M32.7,36.4h2.5v-1.9c0-0.8,0.3-1.5,1-2.1c0.6-0.6,0.9-1.4,0.9-2.2c0-0.9-0.4-1.8-1.1-2.4
	c-0.7-0.6-1.6-0.8-2.6-0.7c-1.2,0.2-2.3,1.2-2.5,2.5c-0.2,1,0.1,2,0.8,2.7c0.7,0.7,1,1.5,1,2.3V36.4z"/>
<path class="st0" d="M40.9,42H27.1c-0.3,0-0.6-0.3-0.6-0.6v-2.7c0-0.9,0.7-1.7,1.6-1.9l3.9-0.5l3.8,0l4,0.5c0.9,0.1,1.6,0.9,1.6,1.9
	v2.7C41.5,41.7,41.2,42,40.9,42z M27.7,40.7h12.5v-2c0-0.3-0.2-0.6-0.5-0.6l-3.9-0.5l-3.7,0l-3.8,0.5c-0.3,0-0.5,0.3-0.5,0.6V40.7z"
	/>
<path class="st0" d="M23.3,37h-8.8c-1.7,0-3.1-1.4-3.1-3.1V15.1c0-1.7,1.4-3.1,3.1-3.1h15c1.7,0,3.1,1.4,3.1,3.1v7.5
	c0,0.3-0.3,0.6-0.6,0.6c-0.3,0-0.6-0.3-0.6-0.6v-7.5c0-1-0.8-1.9-1.9-1.9h-15c-1,0-1.9,0.8-1.9,1.9v18.8c0,1,0.8,1.9,1.9,1.9h8.8
	c0.3,0,0.6,0.3,0.6,0.6S23.7,37,23.3,37z"/>
<path class="st0" d="M27.1,28.2h-10c-0.3,0-0.6-0.3-0.6-0.6s0.3-0.6,0.6-0.6h10c0.3,0,0.6,0.3,0.6,0.6S27.4,28.2,27.1,28.2z"/>
<path class="st0" d="M25.8,33.2h-8.8c-0.3,0-0.6-0.3-0.6-0.6s0.3-0.6,0.6-0.6h8.8c0.3,0,0.6,0.3,0.6,0.6S26.2,33.2,25.8,33.2z"/>
<path class="st0" d="M27.1,23.2h-10c-0.3,0-0.6-0.3-0.6-0.6s0.3-0.6,0.6-0.6h10c0.3,0,0.6,0.3,0.6,0.6S27.4,23.2,27.1,23.2z"/>
<path class="st0" d="M27.1,18.2h-10c-0.3,0-0.6-0.3-0.6-0.6s0.3-0.6,0.6-0.6h10c0.3,0,0.6,0.3,0.6,0.6S27.4,18.2,27.1,18.2z"/>
</svg>
