<?xml version="1.0" encoding="utf-8"?>
<!-- Generator: Adobe Illustrator 24.1.0, SVG Export Plug-In . SVG Version: 6.00 Build 0)  -->
<svg version="1.1" id="https:_material.io_resources_icons_icon_group_work_style_outline"
	 xmlns="http://www.w3.org/2000/svg" xmlns:xlink="http://www.w3.org/1999/xlink" x="0px" y="0px" viewBox="0 0 52.2 52.2"
	 style="enable-background:new 0 0 52.2 52.2;" xml:space="preserve">
<style type="text/css">
	.st0{fill:#FDFEFF;}
</style>
<path class="st0" d="M26,18.1c-5,0-9,4-9,9c0,3.8,2.3,7,5.6,8.4v-5h-1.1c-0.4,0-0.8-0.2-1-0.6c-0.2-0.4-0.2-0.8,0.1-1.2L25,22
	c0.2-0.3,0.6-0.5,0.9-0.5c0.4,0,0.7,0.2,0.9,0.5l4.5,6.8c0.2,0.3,0.3,0.8,0.1,1.2c-0.2,0.4-0.6,0.6-1,0.6h-1.1v5
	c3.3-1.3,5.6-4.6,5.6-8.4C35,22.1,30.9,18.1,26,18.1z"/>
<g>
	<path class="st0" d="M26,40.9c-7.6,0-13.8-6.2-13.8-13.8S18.3,13.3,26,13.3s13.8,6.2,13.8,13.8S33.6,40.9,26,40.9z M26,13.9
		c-7.3,0-13.2,5.9-13.2,13.2S18.7,40.4,26,40.4s13.2-5.9,13.2-13.2S33.3,13.9,26,13.9z"/>
	<path class="st0" d="M10.2,27.4c-0.2,0-0.3-0.1-0.3-0.3c0-8.9,7.2-16.1,16.1-16.1c0.2,0,0.3,0.1,0.3,0.3s-0.1,0.3-0.3,0.3
		c-8.5,0-15.5,7-15.5,15.5C10.5,27.3,10.3,27.4,10.2,27.4z"/>
	<path class="st0" d="M27.7,11.6h-0.6c-0.2,0-0.3-0.1-0.3-0.3s0.1-0.3,0.3-0.3h0.6c0.2,0,0.3,0.1,0.3,0.3S27.8,11.6,27.7,11.6z"/>
	<path class="st0" d="M26,43.2c-0.2,0-0.3-0.1-0.3-0.3c0-0.2,0.1-0.3,0.3-0.3c8.5,0,15.5-7,15.5-15.5c0-0.2,0.1-0.3,0.3-0.3
		c0.2,0,0.3,0.1,0.3,0.3C42,36,34.8,43.2,26,43.2z"/>
	<path class="st0" d="M24.8,43.2h-0.6c-0.2,0-0.3-0.1-0.3-0.3c0-0.2,0.1-0.3,0.3-0.3h0.6c0.2,0,0.3,0.1,0.3,0.3
		C25.1,43.1,25,43.2,24.8,43.2z"/>
	<path class="st0" d="M37.8,12.8h-2.3c-0.2,0-0.3-0.1-0.3-0.3c0-0.2,0.1-0.3,0.3-0.3h2.3c0.2,0,0.3,0.1,0.3,0.3
		C38.1,12.6,37.9,12.8,37.8,12.8z"/>
	<path class="st0" d="M36.7,13.9c-0.2,0-0.3-0.1-0.3-0.3v-2.3c0-0.2,0.1-0.3,0.3-0.3c0.2,0,0.3,0.1,0.3,0.3v2.3
		C36.9,13.8,36.8,13.9,36.7,13.9z"/>
	<path class="st0" d="M41.7,16.4h-2.3c-0.2,0-0.3-0.1-0.3-0.3c0-0.2,0.1-0.3,0.3-0.3h2.3c0.2,0,0.3,0.1,0.3,0.3
		C42,16.3,41.9,16.4,41.7,16.4z"/>
	<path class="st0" d="M40.6,17.5c-0.2,0-0.3-0.1-0.3-0.3V15c0-0.2,0.1-0.3,0.3-0.3s0.3,0.1,0.3,0.3v2.3
		C40.9,17.4,40.8,17.5,40.6,17.5z"/>
</g>
<path class="st0" d="M26,22.6l-4.5,6.8h2.3v6.2c0,0.3,0.3,0.6,0.6,0.6h3.4c0.3,0,0.6-0.3,0.6-0.6v-6.2h2.3L26,22.6z"/>
<path class="st0" d="M27.7,36.4h-3.4c-0.5,0-0.8-0.4-0.8-0.8v-5.9h-2c-0.1,0-0.2-0.1-0.2-0.1c0-0.1,0-0.2,0-0.3l4.5-6.8
	c0.1-0.2,0.4-0.2,0.5,0l4.5,6.8c0.1,0.1,0.1,0.2,0,0.3c0,0.1-0.1,0.1-0.2,0.1h-2v5.9C28.5,36,28.1,36.4,27.7,36.4z M22,29.1h1.7
	c0.2,0,0.3,0.1,0.3,0.3v6.2c0,0.2,0.1,0.3,0.3,0.3h3.4c0.2,0,0.3-0.1,0.3-0.3v-6.2c0-0.2,0.1-0.3,0.3-0.3h1.7l-4-6L22,29.1z"/>
<path class="st0" d="M29.3,35.8c-0.1,0-0.2-0.1-0.3-0.2c-0.1-0.1,0-0.3,0.2-0.4c3.3-1.3,5.5-4.5,5.5-8.1c0-4.8-3.9-8.7-8.7-8.7
	s-8.7,3.9-8.7,8.7c0,3.6,2.1,6.7,5.5,8.1c0.1,0.1,0.2,0.2,0.2,0.4c-0.1,0.1-0.2,0.2-0.4,0.2c-3.5-1.4-5.8-4.8-5.8-8.6
	c0-5.1,4.2-9.3,9.3-9.3s9.3,4.2,9.3,9.3c0,3.8-2.3,7.2-5.8,8.6C29.4,35.8,29.4,35.8,29.3,35.8z"/>
</svg>
