<?xml version="1.0" encoding="utf-8"?>
<!-- Generator: Adobe Illustrator 24.1.0, SVG Export Plug-In . SVG Version: 6.00 Build 0)  -->
<svg version="1.1" id="https:_material.io_resources_icons_icon_mode_comment_style_outline"
	 xmlns="http://www.w3.org/2000/svg" xmlns:xlink="http://www.w3.org/1999/xlink" x="0px" y="0px" viewBox="0 0 52.2 52.2"
	 style="enable-background:new 0 0 52.2 52.2;" xml:space="preserve">
<style type="text/css">
	.st0{fill:#FFFFFF;}
</style>
<path class="st0" d="M30.9,23.9H16.8c-0.5,0-0.8-0.4-0.8-0.8v-9.6c0-0.5,0.4-0.8,0.8-0.8h14.2c0.3,0,0.6,0.2,0.8,0.5
	c0.1,0.3,0.1,0.6-0.1,0.9l-3.1,4.3l3.1,4.3c0.2,0.3,0.2,0.6,0.1,0.9C31.5,23.7,31.2,23.9,30.9,23.9L30.9,23.9z"/>
<path class="st0" d="M28.6,18.2H15.9V23c0,0.5,0.4,0.8,0.8,0.8h14.2c0.3,0,0.6-0.2,0.8-0.5c0.1-0.3,0.1-0.6-0.1-0.9L28.6,18.2z"/>
<path class="st0" d="M30.1,32.9c1.9,0,3.4-1.5,3.4-3.4s-1.5-3.4-3.4-3.4c-1.9,0-3.4,1.5-3.4,3.4C26.7,31.4,28.2,32.9,30.1,32.9z"/>
<path class="st0" d="M33.2,34.1H27c-1.7,0-3.1,1.4-3.1,3.1v1.7c0,0.5,0.4,0.8,0.8,0.8h10.8c0.5,0,0.8-0.4,0.8-0.8v-1.7
	C36.3,35.4,34.9,34.1,33.2,34.1z"/>
<path class="st0" d="M30.1,26.1c-1.9,0-3.4,1.5-3.4,3.4c0,1.9,1.5,3.4,3.4,3.4V26.1z"/>
<path class="st0" d="M30.1,34.1H27c-1.7,0-3.1,1.4-3.1,3.1v1.7c0,0.5,0.4,0.8,0.8,0.8h5.4V34.1z"/>
<path class="st0" d="M16.8,39.7c-0.5,0-0.8-0.4-0.8-0.8V13.4c0-0.5,0.4-0.8,0.8-0.8s0.8,0.4,0.8,0.8v25.5
	C17.6,39.3,17.2,39.7,16.8,39.7z"/>
<path class="st0" d="M16.8,12.5c-0.5,0-0.8,0.4-0.8,0.8v25.5c0,0.5,0.4,0.8,0.8,0.8V12.5z"/>
</svg>
